<svg xmlns="http://www.w3.org/2000/svg" xmlns:xlink="http://www.w3.org/1999/xlink" width="512" height="512">\n<style type="text/css">svg .background,svg .canvas,svg text.blue,svg text.gray,svg text.green{fill:#fff}svg path.blue{fill:#00f;stroke:#add8e6}svg path.green{fill:green;stroke:#90ee90}svg path.gray{fill:gray;stroke:#d3d3d3}</style><path d="M 0 0 L 512 0 L 512 512 L 0 512 L 0 0" class="background"/><path d="M 5 5 L 507 5 L 507 507 L 5 507 L 5 5" class="canvas"/><path d="M 256 256 L 507 256 A 251 251 128.56 0 1 100 452 L 256 256 Z" class="blue"/><path d="M 256 256 L 100 452 A 251 251 128.56 0 1 201 12 L 256 256 Z" class="green"/><path d="M 256 256 L 201 12 A 251 251 102.85 0 1 506 256 L 256 256 Z" class="gray"/><text x="313" y="413" class="blue">Blue</text><text x="73" y="226" class="green">Green</text><text x="344" y="133" class="gray">Gray</text></svg>