<svg xmlns="http://www.w3.org/2000/svg" xmlns:xlink="http://www.w3.org/1999/xlink" width="512" height="512">\n<path d="M 0 0 L 512 0 L 512 512 L 0 512 L 0 0" style="stroke-width:0;stroke:#fff;fill:#fff"/><path d="M 5 5 L 507 5 L 507 507 L 5 507 L 5 5" style="stroke-width:0;stroke:#fff;fill:#fff"/><path d="M 256 256 L 438 256 A 182 182 225.00 1 1 127 127 L 256 256 Z" style="stroke-width:4;stroke:#fff;fill:#6ac3cb"/><path d="M 256 256 L 127 127 A 182 182 90.00 0 1 385 127 L 256 256 Z" style="stroke-width:4;stroke:#fff;fill:#2abe89"/><path d="M 256 256 L 385 127 A 182 182 45.00 0 1 438 256 L 256 256 Z" style="stroke-width:4;stroke:#fff;fill:#6e808b"/><path d="M 256 256 L 321 256 A 65 65 359.00 1 1 321 255 L 256 256 Z" style="stroke-width:4;stroke:#fff;fill:#fff"/><text x="159" y="461" style="stroke-width:0;stroke:none;fill:#333;font-size:15.3px;font-family:'Roboto Medium',sans-serif">Blue</text><text x="241" y="48" style="stroke-width:0;stroke:none;fill:#333;font-size:15.3px;font-family:'Roboto Medium',sans-serif">Two</text><text x="440" y="181" style="stroke-width:0;stroke:none;fill:#333;font-size:15.3px;font-family:'Roboto Medium',sans-serif">One</text></svg>